<svg aria-roledescription="er" role="graphics-document document" viewBox="0 0 461.0975036621094 1074" style="max-width: 461.0975036621094px;" xmlns:xlink="http://www.w3.org/1999/xlink" xmlns="http://www.w3.org/2000/svg" width="100%" id="mermaid-1773751201535"><style>#mermaid-1773751201535{font-family:"trebuchet ms",verdana,arial,sans-serif;font-size:16px;fill:#333;}#mermaid-1773751201535 .error-icon{fill:#552222;}#mermaid-1773751201535 .error-text{fill:#552222;stroke:#552222;}#mermaid-1773751201535 .edge-thickness-normal{stroke-width:2px;}#mermaid-1773751201535 .edge-thickness-thick{stroke-width:3.5px;}#mermaid-1773751201535 .edge-pattern-solid{stroke-dasharray:0;}#mermaid-1773751201535 .edge-pattern-dashed{stroke-dasharray:3;}#mermaid-1773751201535 .edge-pattern-dotted{stroke-dasharray:2;}#mermaid-1773751201535 .marker{fill:#333333;stroke:#333333;}#mermaid-1773751201535 .marker.cross{stroke:#333333;}#mermaid-1773751201535 svg{font-family:"trebuchet ms",verdana,arial,sans-serif;font-size:16px;}#mermaid-1773751201535 .entityBox{fill:#ECECFF;stroke:#9370DB;}#mermaid-1773751201535 .attributeBoxOdd{fill:#ffffff;stroke:#9370DB;}#mermaid-1773751201535 .attributeBoxEven{fill:#f2f2f2;stroke:#9370DB;}#mermaid-1773751201535 .relationshipLabelBox{fill:hsl(80, 100%, 96.2745098039%);opacity:0.7;background-color:hsl(80, 100%, 96.2745098039%);}#mermaid-1773751201535 .relationshipLabelBox rect{opacity:0.5;}#mermaid-1773751201535 .relationshipLine{stroke:#333333;}#mermaid-1773751201535 .entityTitleText{text-anchor:middle;font-size:18px;fill:#333;}#mermaid-1773751201535 #MD_PARENT_START{fill:#f5f5f5!important;stroke:#333333!important;stroke-width:1;}#mermaid-1773751201535 #MD_PARENT_END{fill:#f5f5f5!important;stroke:#333333!important;stroke-width:1;}#mermaid-1773751201535 :root{--mermaid-font-family:"trebuchet ms",verdana,arial,sans-serif;}</style><g/><defs><marker orient="auto" markerHeight="240" markerWidth="190" refY="7" refX="0" id="MD_PARENT_START"><path d="M 18,7 L9,13 L1,7 L9,1 Z"/></marker></defs><defs><marker orient="auto" markerHeight="28" markerWidth="20" refY="7" refX="19" id="MD_PARENT_END"><path d="M 18,7 L9,13 L1,7 L9,1 Z"/></marker></defs><defs><marker orient="auto" markerHeight="18" markerWidth="18" refY="9" refX="0" id="ONLY_ONE_START"><path d="M9,0 L9,18 M15,0 L15,18" fill="none" stroke="gray"/></marker></defs><defs><marker orient="auto" markerHeight="18" markerWidth="18" refY="9" refX="18" id="ONLY_ONE_END"><path d="M3,0 L3,18 M9,0 L9,18" fill="none" stroke="gray"/></marker></defs><defs><marker orient="auto" markerHeight="18" markerWidth="30" refY="9" refX="0" id="ZERO_OR_ONE_START"><circle r="6" cy="9" cx="21" fill="white" stroke="gray"/><path d="M9,0 L9,18" fill="none" stroke="gray"/></marker></defs><defs><marker orient="auto" markerHeight="18" markerWidth="30" refY="9" refX="30" id="ZERO_OR_ONE_END"><circle r="6" cy="9" cx="9" fill="white" stroke="gray"/><path d="M21,0 L21,18" fill="none" stroke="gray"/></marker></defs><defs><marker orient="auto" markerHeight="36" markerWidth="45" refY="18" refX="18" id="ONE_OR_MORE_START"><path d="M0,18 Q 18,0 36,18 Q 18,36 0,18 M42,9 L42,27" fill="none" stroke="gray"/></marker></defs><defs><marker orient="auto" markerHeight="36" markerWidth="45" refY="18" refX="27" id="ONE_OR_MORE_END"><path d="M3,9 L3,27 M9,18 Q27,0 45,18 Q27,36 9,18" fill="none" stroke="gray"/></marker></defs><defs><marker orient="auto" markerHeight="36" markerWidth="57" refY="18" refX="18" id="ZERO_OR_MORE_START"><circle r="6" cy="18" cx="48" fill="white" stroke="gray"/><path d="M0,18 Q18,0 36,18 Q18,36 0,18" fill="none" stroke="gray"/></marker></defs><defs><marker orient="auto" markerHeight="36" markerWidth="57" refY="18" refX="39" id="ZERO_OR_MORE_END"><circle r="6" cy="18" cx="9" fill="white" stroke="gray"/><path d="M21,18 Q39,0 57,18 Q39,36 21,18" fill="none" stroke="gray"/></marker></defs><path style="stroke: gray; fill: none;" marker-start="url(#ONLY_ONE_START)" marker-end="url(#ZERO_OR_MORE_END)" d="M98.221,171.686L89.461,180.739C80.702,189.791,63.183,207.895,54.424,243.781C45.664,279.667,45.664,333.333,45.664,387C45.664,440.667,45.664,494.333,53.09,529.5C60.515,564.667,75.367,581.333,82.792,589.667L90.218,598" class="er relationshipLine"/><path style="stroke: gray; fill: none;" marker-start="url(#ONLY_ONE_START)" marker-end="url(#ZERO_OR_MORE_END)" d="M240.825,171.686L249.584,180.739C258.343,189.791,275.862,207.895,284.622,225.281C293.381,242.667,293.381,259.333,293.381,267.667L293.381,276" class="er relationshipLine"/><path style="stroke: gray; fill: none;" marker-start="url(#ONLY_ONE_START)" marker-end="url(#ONE_OR_MORE_END)" d="M137.508,776L134.511,784.333C131.513,792.667,125.518,809.333,125.518,826C125.518,842.667,131.513,859.333,134.511,867.667L137.508,876" class="er relationshipLine"/><path style="stroke: gray; fill: none;" marker-start="url(#ONLY_ONE_START)" marker-end="url(#ONE_OR_MORE_END)" d="M201.537,776L204.535,784.333C207.532,792.667,213.527,809.333,213.527,826C213.527,842.667,207.532,859.333,204.535,867.667L201.537,876" class="er relationshipLine"/><path style="stroke: gray; fill: none;" marker-start="url(#ONE_OR_MORE_START)" marker-end="url(#ONLY_ONE_END)" d="M293.381,498L293.381,506.333C293.381,514.667,293.381,531.333,285.955,548C278.53,564.667,263.679,581.333,256.253,589.667L248.828,598" class="er relationshipLine"/><g transform="translate(98.22073364257812,20 )" id="entity-clients-ff31054f-5edf-5895-ab28-e526bff23404"><rect height="156" width="142.60385131835938" y="0" x="0" class="er entityBox"/><text style="dominant-baseline: middle; text-anchor: middle; font-size: 12px;" transform="translate(71.30192565917969,12)" y="0" x="0" id="text-entity-clients-ff31054f-5edf-5895-ab28-e526bff23404" class="er entityLabel">clients</text><rect height="22" width="58.98138427734375" y="24" x="0" class="er attributeBoxOdd"/><text style="dominant-baseline: middle; font-size: 10.2px;" transform="translate(5,35)" y="0" x="0" id="text-entity-clients-ff31054f-5edf-5895-ab28-e526bff23404-attr-1-type" class="er entityLabel">int</text><rect height="22" width="60.934783935546875" y="24" x="58.98138427734375" class="er attributeBoxOdd"/><text style="dominant-baseline: middle; font-size: 10.2px;" transform="translate(63.98138427734375,35)" y="0" x="0" id="text-entity-clients-ff31054f-5edf-5895-ab28-e526bff23404-attr-1-name" class="er entityLabel">client_id</text><rect height="22" width="22.68768310546875" y="24" x="119.91616821289062" class="er attributeBoxOdd"/><text style="dominant-baseline: middle; font-size: 10.2px;" transform="translate(124.91616821289062,35)" y="0" x="0" id="text-entity-clients-ff31054f-5edf-5895-ab28-e526bff23404-attr-1-key" class="er entityLabel">PK</text><rect height="22" width="58.98138427734375" y="46" x="0" class="er attributeBoxEven"/><text style="dominant-baseline: middle; font-size: 10.2px;" transform="translate(5,57)" y="0" x="0" id="text-entity-clients-ff31054f-5edf-5895-ab28-e526bff23404-attr-2-type" class="er entityLabel">string</text><rect height="22" width="60.934783935546875" y="46" x="58.98138427734375" class="er attributeBoxEven"/><text style="dominant-baseline: middle; font-size: 10.2px;" transform="translate(63.98138427734375,57)" y="0" x="0" id="text-entity-clients-ff31054f-5edf-5895-ab28-e526bff23404-attr-2-name" class="er entityLabel">name</text><rect height="22" width="22.68768310546875" y="46" x="119.91616821289062" class="er attributeBoxEven"/><text style="dominant-baseline: middle; font-size: 10.2px;" transform="translate(124.91616821289062,57)" y="0" x="0" id="text-entity-clients-ff31054f-5edf-5895-ab28-e526bff23404-attr-2-key" class="er entityLabel"/><rect height="22" width="58.98138427734375" y="68" x="0" class="er attributeBoxOdd"/><text style="dominant-baseline: middle; font-size: 10.2px;" transform="translate(5,79)" y="0" x="0" id="text-entity-clients-ff31054f-5edf-5895-ab28-e526bff23404-attr-3-type" class="er entityLabel">string</text><rect height="22" width="60.934783935546875" y="68" x="58.98138427734375" class="er attributeBoxOdd"/><text style="dominant-baseline: middle; font-size: 10.2px;" transform="translate(63.98138427734375,79)" y="0" x="0" id="text-entity-clients-ff31054f-5edf-5895-ab28-e526bff23404-attr-3-name" class="er entityLabel">passport</text><rect height="22" width="22.68768310546875" y="68" x="119.91616821289062" class="er attributeBoxOdd"/><text style="dominant-baseline: middle; font-size: 10.2px;" transform="translate(124.91616821289062,79)" y="0" x="0" id="text-entity-clients-ff31054f-5edf-5895-ab28-e526bff23404-attr-3-key" class="er entityLabel"/><rect height="22" width="58.98138427734375" y="90" x="0" class="er attributeBoxEven"/><text style="dominant-baseline: middle; font-size: 10.2px;" transform="translate(5,101)" y="0" x="0" id="text-entity-clients-ff31054f-5edf-5895-ab28-e526bff23404-attr-4-type" class="er entityLabel">string</text><rect height="22" width="60.934783935546875" y="90" x="58.98138427734375" class="er attributeBoxEven"/><text style="dominant-baseline: middle; font-size: 10.2px;" transform="translate(63.98138427734375,101)" y="0" x="0" id="text-entity-clients-ff31054f-5edf-5895-ab28-e526bff23404-attr-4-name" class="er entityLabel">phone</text><rect height="22" width="22.68768310546875" y="90" x="119.91616821289062" class="er attributeBoxEven"/><text style="dominant-baseline: middle; font-size: 10.2px;" transform="translate(124.91616821289062,101)" y="0" x="0" id="text-entity-clients-ff31054f-5edf-5895-ab28-e526bff23404-attr-4-key" class="er entityLabel"/><rect height="22" width="58.98138427734375" y="112" x="0" class="er attributeBoxOdd"/><text style="dominant-baseline: middle; font-size: 10.2px;" transform="translate(5,123)" y="0" x="0" id="text-entity-clients-ff31054f-5edf-5895-ab28-e526bff23404-attr-5-type" class="er entityLabel">string</text><rect height="22" width="60.934783935546875" y="112" x="58.98138427734375" class="er attributeBoxOdd"/><text style="dominant-baseline: middle; font-size: 10.2px;" transform="translate(63.98138427734375,123)" y="0" x="0" id="text-entity-clients-ff31054f-5edf-5895-ab28-e526bff23404-attr-5-name" class="er entityLabel">email</text><rect height="22" width="22.68768310546875" y="112" x="119.91616821289062" class="er attributeBoxOdd"/><text style="dominant-baseline: middle; font-size: 10.2px;" transform="translate(124.91616821289062,123)" y="0" x="0" id="text-entity-clients-ff31054f-5edf-5895-ab28-e526bff23404-attr-5-key" class="er entityLabel"/><rect height="22" width="58.98138427734375" y="134" x="0" class="er attributeBoxEven"/><text style="dominant-baseline: middle; font-size: 10.2px;" transform="translate(5,145)" y="0" x="0" id="text-entity-clients-ff31054f-5edf-5895-ab28-e526bff23404-attr-6-type" class="er entityLabel">timestamp</text><rect height="22" width="60.934783935546875" y="134" x="58.98138427734375" class="er attributeBoxEven"/><text style="dominant-baseline: middle; font-size: 10.2px;" transform="translate(63.98138427734375,145)" y="0" x="0" id="text-entity-clients-ff31054f-5edf-5895-ab28-e526bff23404-attr-6-name" class="er entityLabel">created_at</text><rect height="22" width="22.68768310546875" y="134" x="119.91616821289062" class="er attributeBoxEven"/><text style="dominant-baseline: middle; font-size: 10.2px;" transform="translate(124.91616821289062,145)" y="0" x="0" id="text-entity-clients-ff31054f-5edf-5895-ab28-e526bff23404-attr-6-key" class="er entityLabel"/></g><g transform="translate(44.96826934814453,598 )" id="entity-accounts-63517279-e5db-51fd-8103-6411c1455933"><rect height="178" width="249.10877990722656" y="0" x="0" class="er entityBox"/><text style="dominant-baseline: middle; text-anchor: middle; font-size: 12px;" transform="translate(124.55438995361328,12)" y="0" x="0" id="text-entity-accounts-63517279-e5db-51fd-8103-6411c1455933" class="er entityLabel">accounts</text><rect height="22" width="58.98138427734375" y="24" x="0" class="er attributeBoxOdd"/><text style="dominant-baseline: middle; font-size: 10.2px;" transform="translate(5,35)" y="0" x="0" id="text-entity-accounts-63517279-e5db-51fd-8103-6411c1455933-attr-1-type" class="er entityLabel">int</text><rect height="22" width="87.33123779296875" y="24" x="58.98138427734375" class="er attributeBoxOdd"/><text style="dominant-baseline: middle; font-size: 10.2px;" transform="translate(63.98138427734375,35)" y="0" x="0" id="text-entity-accounts-63517279-e5db-51fd-8103-6411c1455933-attr-1-name" class="er entityLabel">account_id</text><rect height="22" width="22.68768310546875" y="24" x="146.3126220703125" class="er attributeBoxOdd"/><text style="dominant-baseline: middle; font-size: 10.2px;" transform="translate(151.3126220703125,35)" y="0" x="0" id="text-entity-accounts-63517279-e5db-51fd-8103-6411c1455933-attr-1-key" class="er entityLabel">PK</text><rect height="22" width="80.10847473144531" y="24" x="169.00030517578125" class="er attributeBoxOdd"/><text style="dominant-baseline: middle; font-size: 10.2px;" transform="translate(174.00030517578125,35)" y="0" x="0" id="text-entity-accounts-63517279-e5db-51fd-8103-6411c1455933-attr-1-comment" class="er entityLabel"/><rect height="22" width="58.98138427734375" y="46" x="0" class="er attributeBoxEven"/><text style="dominant-baseline: middle; font-size: 10.2px;" transform="translate(5,57)" y="0" x="0" id="text-entity-accounts-63517279-e5db-51fd-8103-6411c1455933-attr-2-type" class="er entityLabel">int</text><rect height="22" width="87.33123779296875" y="46" x="58.98138427734375" class="er attributeBoxEven"/><text style="dominant-baseline: middle; font-size: 10.2px;" transform="translate(63.98138427734375,57)" y="0" x="0" id="text-entity-accounts-63517279-e5db-51fd-8103-6411c1455933-attr-2-name" class="er entityLabel">client_id</text><rect height="22" width="22.68768310546875" y="46" x="146.3126220703125" class="er attributeBoxEven"/><text style="dominant-baseline: middle; font-size: 10.2px;" transform="translate(151.3126220703125,57)" y="0" x="0" id="text-entity-accounts-63517279-e5db-51fd-8103-6411c1455933-attr-2-key" class="er entityLabel">FK</text><rect height="22" width="80.10847473144531" y="46" x="169.00030517578125" class="er attributeBoxEven"/><text style="dominant-baseline: middle; font-size: 10.2px;" transform="translate(174.00030517578125,57)" y="0" x="0" id="text-entity-accounts-63517279-e5db-51fd-8103-6411c1455933-attr-2-comment" class="er entityLabel"/><rect height="22" width="58.98138427734375" y="68" x="0" class="er attributeBoxOdd"/><text style="dominant-baseline: middle; font-size: 10.2px;" transform="translate(5,79)" y="0" x="0" id="text-entity-accounts-63517279-e5db-51fd-8103-6411c1455933-attr-3-type" class="er entityLabel">string</text><rect height="22" width="87.33123779296875" y="68" x="58.98138427734375" class="er attributeBoxOdd"/><text style="dominant-baseline: middle; font-size: 10.2px;" transform="translate(63.98138427734375,79)" y="0" x="0" id="text-entity-accounts-63517279-e5db-51fd-8103-6411c1455933-attr-3-name" class="er entityLabel">account_number</text><rect height="22" width="22.68768310546875" y="68" x="146.3126220703125" class="er attributeBoxOdd"/><text style="dominant-baseline: middle; font-size: 10.2px;" transform="translate(151.3126220703125,79)" y="0" x="0" id="text-entity-accounts-63517279-e5db-51fd-8103-6411c1455933-attr-3-key" class="er entityLabel"/><rect height="22" width="80.10847473144531" y="68" x="169.00030517578125" class="er attributeBoxOdd"/><text style="dominant-baseline: middle; font-size: 10.2px;" transform="translate(174.00030517578125,79)" y="0" x="0" id="text-entity-accounts-63517279-e5db-51fd-8103-6411c1455933-attr-3-comment" class="er entityLabel"/><rect height="22" width="58.98138427734375" y="90" x="0" class="er attributeBoxEven"/><text style="dominant-baseline: middle; font-size: 10.2px;" transform="translate(5,101)" y="0" x="0" id="text-entity-accounts-63517279-e5db-51fd-8103-6411c1455933-attr-4-type" class="er entityLabel">real</text><rect height="22" width="87.33123779296875" y="90" x="58.98138427734375" class="er attributeBoxEven"/><text style="dominant-baseline: middle; font-size: 10.2px;" transform="translate(63.98138427734375,101)" y="0" x="0" id="text-entity-accounts-63517279-e5db-51fd-8103-6411c1455933-attr-4-name" class="er entityLabel">balance</text><rect height="22" width="22.68768310546875" y="90" x="146.3126220703125" class="er attributeBoxEven"/><text style="dominant-baseline: middle; font-size: 10.2px;" transform="translate(151.3126220703125,101)" y="0" x="0" id="text-entity-accounts-63517279-e5db-51fd-8103-6411c1455933-attr-4-key" class="er entityLabel"/><rect height="22" width="80.10847473144531" y="90" x="169.00030517578125" class="er attributeBoxEven"/><text style="dominant-baseline: middle; font-size: 10.2px;" transform="translate(174.00030517578125,101)" y="0" x="0" id="text-entity-accounts-63517279-e5db-51fd-8103-6411c1455933-attr-4-comment" class="er entityLabel"/><rect height="22" width="58.98138427734375" y="112" x="0" class="er attributeBoxOdd"/><text style="dominant-baseline: middle; font-size: 10.2px;" transform="translate(5,123)" y="0" x="0" id="text-entity-accounts-63517279-e5db-51fd-8103-6411c1455933-attr-5-type" class="er entityLabel">string</text><rect height="22" width="87.33123779296875" y="112" x="58.98138427734375" class="er attributeBoxOdd"/><text style="dominant-baseline: middle; font-size: 10.2px;" transform="translate(63.98138427734375,123)" y="0" x="0" id="text-entity-accounts-63517279-e5db-51fd-8103-6411c1455933-attr-5-name" class="er entityLabel">currency</text><rect height="22" width="22.68768310546875" y="112" x="146.3126220703125" class="er attributeBoxOdd"/><text style="dominant-baseline: middle; font-size: 10.2px;" transform="translate(151.3126220703125,123)" y="0" x="0" id="text-entity-accounts-63517279-e5db-51fd-8103-6411c1455933-attr-5-key" class="er entityLabel"/><rect height="22" width="80.10847473144531" y="112" x="169.00030517578125" class="er attributeBoxOdd"/><text style="dominant-baseline: middle; font-size: 10.2px;" transform="translate(174.00030517578125,123)" y="0" x="0" id="text-entity-accounts-63517279-e5db-51fd-8103-6411c1455933-attr-5-comment" class="er entityLabel"/><rect height="22" width="58.98138427734375" y="134" x="0" class="er attributeBoxEven"/><text style="dominant-baseline: middle; font-size: 10.2px;" transform="translate(5,145)" y="0" x="0" id="text-entity-accounts-63517279-e5db-51fd-8103-6411c1455933-attr-6-type" class="er entityLabel">timestamp</text><rect height="22" width="87.33123779296875" y="134" x="58.98138427734375" class="er attributeBoxEven"/><text style="dominant-baseline: middle; font-size: 10.2px;" transform="translate(63.98138427734375,145)" y="0" x="0" id="text-entity-accounts-63517279-e5db-51fd-8103-6411c1455933-attr-6-name" class="er entityLabel">opened_at</text><rect height="22" width="22.68768310546875" y="134" x="146.3126220703125" class="er attributeBoxEven"/><text style="dominant-baseline: middle; font-size: 10.2px;" transform="translate(151.3126220703125,145)" y="0" x="0" id="text-entity-accounts-63517279-e5db-51fd-8103-6411c1455933-attr-6-key" class="er entityLabel"/><rect height="22" width="80.10847473144531" y="134" x="169.00030517578125" class="er attributeBoxEven"/><text style="dominant-baseline: middle; font-size: 10.2px;" transform="translate(174.00030517578125,145)" y="0" x="0" id="text-entity-accounts-63517279-e5db-51fd-8103-6411c1455933-attr-6-comment" class="er entityLabel"/><rect height="22" width="58.98138427734375" y="156" x="0" class="er attributeBoxOdd"/><text style="dominant-baseline: middle; font-size: 10.2px;" transform="translate(5,167)" y="0" x="0" id="text-entity-accounts-63517279-e5db-51fd-8103-6411c1455933-attr-7-type" class="er entityLabel">string</text><rect height="22" width="87.33123779296875" y="156" x="58.98138427734375" class="er attributeBoxOdd"/><text style="dominant-baseline: middle; font-size: 10.2px;" transform="translate(63.98138427734375,167)" y="0" x="0" id="text-entity-accounts-63517279-e5db-51fd-8103-6411c1455933-attr-7-name" class="er entityLabel">status</text><rect height="22" width="22.68768310546875" y="156" x="146.3126220703125" class="er attributeBoxOdd"/><text style="dominant-baseline: middle; font-size: 10.2px;" transform="translate(151.3126220703125,167)" y="0" x="0" id="text-entity-accounts-63517279-e5db-51fd-8103-6411c1455933-attr-7-key" class="er entityLabel"/><rect height="22" width="80.10847473144531" y="156" x="169.00030517578125" class="er attributeBoxOdd"/><text style="dominant-baseline: middle; font-size: 10.2px;" transform="translate(174.00030517578125,167)" y="0" x="0" id="text-entity-accounts-63517279-e5db-51fd-8103-6411c1455933-attr-7-comment" class="er entityLabel">active/inactive</text></g><g transform="translate(145.66437530517578,276 )" id="entity-credits-a70c9b25-3964-5778-9d84-28cff9e0b3b8"><rect height="222" width="295.4331359863281" y="0" x="0" class="er entityBox"/><text style="dominant-baseline: middle; text-anchor: middle; font-size: 12px;" transform="translate(147.71656799316406,12)" y="0" x="0" id="text-entity-credits-a70c9b25-3964-5778-9d84-28cff9e0b3b8" class="er entityLabel">credits</text><rect height="22" width="58.98138427734375" y="24" x="0" class="er attributeBoxOdd"/><text style="dominant-baseline: middle; font-size: 10.2px;" transform="translate(5,35)" y="0" x="0" id="text-entity-credits-a70c9b25-3964-5778-9d84-28cff9e0b3b8-attr-1-type" class="er entityLabel">int</text><rect height="22" width="93.19326782226562" y="24" x="58.98138427734375" class="er attributeBoxOdd"/><text style="dominant-baseline: middle; font-size: 10.2px;" transform="translate(63.98138427734375,35)" y="0" x="0" id="text-entity-credits-a70c9b25-3964-5778-9d84-28cff9e0b3b8-attr-1-name" class="er entityLabel">credit_id</text><rect height="22" width="22.68768310546875" y="24" x="152.17465209960938" class="er attributeBoxOdd"/><text style="dominant-baseline: middle; font-size: 10.2px;" transform="translate(157.17465209960938,35)" y="0" x="0" id="text-entity-credits-a70c9b25-3964-5778-9d84-28cff9e0b3b8-attr-1-key" class="er entityLabel">PK</text><rect height="22" width="120.57080078125" y="24" x="174.86233520507812" class="er attributeBoxOdd"/><text style="dominant-baseline: middle; font-size: 10.2px;" transform="translate(179.86233520507812,35)" y="0" x="0" id="text-entity-credits-a70c9b25-3964-5778-9d84-28cff9e0b3b8-attr-1-comment" class="er entityLabel"/><rect height="22" width="58.98138427734375" y="46" x="0" class="er attributeBoxEven"/><text style="dominant-baseline: middle; font-size: 10.2px;" transform="translate(5,57)" y="0" x="0" id="text-entity-credits-a70c9b25-3964-5778-9d84-28cff9e0b3b8-attr-2-type" class="er entityLabel">int</text><rect height="22" width="93.19326782226562" y="46" x="58.98138427734375" class="er attributeBoxEven"/><text style="dominant-baseline: middle; font-size: 10.2px;" transform="translate(63.98138427734375,57)" y="0" x="0" id="text-entity-credits-a70c9b25-3964-5778-9d84-28cff9e0b3b8-attr-2-name" class="er entityLabel">client_id</text><rect height="22" width="22.68768310546875" y="46" x="152.17465209960938" class="er attributeBoxEven"/><text style="dominant-baseline: middle; font-size: 10.2px;" transform="translate(157.17465209960938,57)" y="0" x="0" id="text-entity-credits-a70c9b25-3964-5778-9d84-28cff9e0b3b8-attr-2-key" class="er entityLabel">FK</text><rect height="22" width="120.57080078125" y="46" x="174.86233520507812" class="er attributeBoxEven"/><text style="dominant-baseline: middle; font-size: 10.2px;" transform="translate(179.86233520507812,57)" y="0" x="0" id="text-entity-credits-a70c9b25-3964-5778-9d84-28cff9e0b3b8-attr-2-comment" class="er entityLabel"/><rect height="22" width="58.98138427734375" y="68" x="0" class="er attributeBoxOdd"/><text style="dominant-baseline: middle; font-size: 10.2px;" transform="translate(5,79)" y="0" x="0" id="text-entity-credits-a70c9b25-3964-5778-9d84-28cff9e0b3b8-attr-3-type" class="er entityLabel">int</text><rect height="22" width="93.19326782226562" y="68" x="58.98138427734375" class="er attributeBoxOdd"/><text style="dominant-baseline: middle; font-size: 10.2px;" transform="translate(63.98138427734375,79)" y="0" x="0" id="text-entity-credits-a70c9b25-3964-5778-9d84-28cff9e0b3b8-attr-3-name" class="er entityLabel">account_id</text><rect height="22" width="22.68768310546875" y="68" x="152.17465209960938" class="er attributeBoxOdd"/><text style="dominant-baseline: middle; font-size: 10.2px;" transform="translate(157.17465209960938,79)" y="0" x="0" id="text-entity-credits-a70c9b25-3964-5778-9d84-28cff9e0b3b8-attr-3-key" class="er entityLabel">FK</text><rect height="22" width="120.57080078125" y="68" x="174.86233520507812" class="er attributeBoxOdd"/><text style="dominant-baseline: middle; font-size: 10.2px;" transform="translate(179.86233520507812,79)" y="0" x="0" id="text-entity-credits-a70c9b25-3964-5778-9d84-28cff9e0b3b8-attr-3-comment" class="er entityLabel"/><rect height="22" width="58.98138427734375" y="90" x="0" class="er attributeBoxEven"/><text style="dominant-baseline: middle; font-size: 10.2px;" transform="translate(5,101)" y="0" x="0" id="text-entity-credits-a70c9b25-3964-5778-9d84-28cff9e0b3b8-attr-4-type" class="er entityLabel">real</text><rect height="22" width="93.19326782226562" y="90" x="58.98138427734375" class="er attributeBoxEven"/><text style="dominant-baseline: middle; font-size: 10.2px;" transform="translate(63.98138427734375,101)" y="0" x="0" id="text-entity-credits-a70c9b25-3964-5778-9d84-28cff9e0b3b8-attr-4-name" class="er entityLabel">amount</text><rect height="22" width="22.68768310546875" y="90" x="152.17465209960938" class="er attributeBoxEven"/><text style="dominant-baseline: middle; font-size: 10.2px;" transform="translate(157.17465209960938,101)" y="0" x="0" id="text-entity-credits-a70c9b25-3964-5778-9d84-28cff9e0b3b8-attr-4-key" class="er entityLabel"/><rect height="22" width="120.57080078125" y="90" x="174.86233520507812" class="er attributeBoxEven"/><text style="dominant-baseline: middle; font-size: 10.2px;" transform="translate(179.86233520507812,101)" y="0" x="0" id="text-entity-credits-a70c9b25-3964-5778-9d84-28cff9e0b3b8-attr-4-comment" class="er entityLabel"/><rect height="22" width="58.98138427734375" y="112" x="0" class="er attributeBoxOdd"/><text style="dominant-baseline: middle; font-size: 10.2px;" transform="translate(5,123)" y="0" x="0" id="text-entity-credits-a70c9b25-3964-5778-9d84-28cff9e0b3b8-attr-5-type" class="er entityLabel">real</text><rect height="22" width="93.19326782226562" y="112" x="58.98138427734375" class="er attributeBoxOdd"/><text style="dominant-baseline: middle; font-size: 10.2px;" transform="translate(63.98138427734375,123)" y="0" x="0" id="text-entity-credits-a70c9b25-3964-5778-9d84-28cff9e0b3b8-attr-5-name" class="er entityLabel">interest_rate</text><rect height="22" width="22.68768310546875" y="112" x="152.17465209960938" class="er attributeBoxOdd"/><text style="dominant-baseline: middle; font-size: 10.2px;" transform="translate(157.17465209960938,123)" y="0" x="0" id="text-entity-credits-a70c9b25-3964-5778-9d84-28cff9e0b3b8-attr-5-key" class="er entityLabel"/><rect height="22" width="120.57080078125" y="112" x="174.86233520507812" class="er attributeBoxOdd"/><text style="dominant-baseline: middle; font-size: 10.2px;" transform="translate(179.86233520507812,123)" y="0" x="0" id="text-entity-credits-a70c9b25-3964-5778-9d84-28cff9e0b3b8-attr-5-comment" class="er entityLabel"/><rect height="22" width="58.98138427734375" y="134" x="0" class="er attributeBoxEven"/><text style="dominant-baseline: middle; font-size: 10.2px;" transform="translate(5,145)" y="0" x="0" id="text-entity-credits-a70c9b25-3964-5778-9d84-28cff9e0b3b8-attr-6-type" class="er entityLabel">real</text><rect height="22" width="93.19326782226562" y="134" x="58.98138427734375" class="er attributeBoxEven"/><text style="dominant-baseline: middle; font-size: 10.2px;" transform="translate(63.98138427734375,145)" y="0" x="0" id="text-entity-credits-a70c9b25-3964-5778-9d84-28cff9e0b3b8-attr-6-name" class="er entityLabel">monthly_payment</text><rect height="22" width="22.68768310546875" y="134" x="152.17465209960938" class="er attributeBoxEven"/><text style="dominant-baseline: middle; font-size: 10.2px;" transform="translate(157.17465209960938,145)" y="0" x="0" id="text-entity-credits-a70c9b25-3964-5778-9d84-28cff9e0b3b8-attr-6-key" class="er entityLabel"/><rect height="22" width="120.57080078125" y="134" x="174.86233520507812" class="er attributeBoxEven"/><text style="dominant-baseline: middle; font-size: 10.2px;" transform="translate(179.86233520507812,145)" y="0" x="0" id="text-entity-credits-a70c9b25-3964-5778-9d84-28cff9e0b3b8-attr-6-comment" class="er entityLabel"/><rect height="22" width="58.98138427734375" y="156" x="0" class="er attributeBoxOdd"/><text style="dominant-baseline: middle; font-size: 10.2px;" transform="translate(5,167)" y="0" x="0" id="text-entity-credits-a70c9b25-3964-5778-9d84-28cff9e0b3b8-attr-7-type" class="er entityLabel">int</text><rect height="22" width="93.19326782226562" y="156" x="58.98138427734375" class="er attributeBoxOdd"/><text style="dominant-baseline: middle; font-size: 10.2px;" transform="translate(63.98138427734375,167)" y="0" x="0" id="text-entity-credits-a70c9b25-3964-5778-9d84-28cff9e0b3b8-attr-7-name" class="er entityLabel">term_months</text><rect height="22" width="22.68768310546875" y="156" x="152.17465209960938" class="er attributeBoxOdd"/><text style="dominant-baseline: middle; font-size: 10.2px;" transform="translate(157.17465209960938,167)" y="0" x="0" id="text-entity-credits-a70c9b25-3964-5778-9d84-28cff9e0b3b8-attr-7-key" class="er entityLabel"/><rect height="22" width="120.57080078125" y="156" x="174.86233520507812" class="er attributeBoxOdd"/><text style="dominant-baseline: middle; font-size: 10.2px;" transform="translate(179.86233520507812,167)" y="0" x="0" id="text-entity-credits-a70c9b25-3964-5778-9d84-28cff9e0b3b8-attr-7-comment" class="er entityLabel"/><rect height="22" width="58.98138427734375" y="178" x="0" class="er attributeBoxEven"/><text style="dominant-baseline: middle; font-size: 10.2px;" transform="translate(5,189)" y="0" x="0" id="text-entity-credits-a70c9b25-3964-5778-9d84-28cff9e0b3b8-attr-8-type" class="er entityLabel">timestamp</text><rect height="22" width="93.19326782226562" y="178" x="58.98138427734375" class="er attributeBoxEven"/><text style="dominant-baseline: middle; font-size: 10.2px;" transform="translate(63.98138427734375,189)" y="0" x="0" id="text-entity-credits-a70c9b25-3964-5778-9d84-28cff9e0b3b8-attr-8-name" class="er entityLabel">approved_at</text><rect height="22" width="22.68768310546875" y="178" x="152.17465209960938" class="er attributeBoxEven"/><text style="dominant-baseline: middle; font-size: 10.2px;" transform="translate(157.17465209960938,189)" y="0" x="0" id="text-entity-credits-a70c9b25-3964-5778-9d84-28cff9e0b3b8-attr-8-key" class="er entityLabel"/><rect height="22" width="120.57080078125" y="178" x="174.86233520507812" class="er attributeBoxEven"/><text style="dominant-baseline: middle; font-size: 10.2px;" transform="translate(179.86233520507812,189)" y="0" x="0" id="text-entity-credits-a70c9b25-3964-5778-9d84-28cff9e0b3b8-attr-8-comment" class="er entityLabel"/><rect height="22" width="58.98138427734375" y="200" x="0" class="er attributeBoxOdd"/><text style="dominant-baseline: middle; font-size: 10.2px;" transform="translate(5,211)" y="0" x="0" id="text-entity-credits-a70c9b25-3964-5778-9d84-28cff9e0b3b8-attr-9-type" class="er entityLabel">string</text><rect height="22" width="93.19326782226562" y="200" x="58.98138427734375" class="er attributeBoxOdd"/><text style="dominant-baseline: middle; font-size: 10.2px;" transform="translate(63.98138427734375,211)" y="0" x="0" id="text-entity-credits-a70c9b25-3964-5778-9d84-28cff9e0b3b8-attr-9-name" class="er entityLabel">status</text><rect height="22" width="22.68768310546875" y="200" x="152.17465209960938" class="er attributeBoxOdd"/><text style="dominant-baseline: middle; font-size: 10.2px;" transform="translate(157.17465209960938,211)" y="0" x="0" id="text-entity-credits-a70c9b25-3964-5778-9d84-28cff9e0b3b8-attr-9-key" class="er entityLabel"/><rect height="22" width="120.57080078125" y="200" x="174.86233520507812" class="er attributeBoxOdd"/><text style="dominant-baseline: middle; font-size: 10.2px;" transform="translate(179.86233520507812,211)" y="0" x="0" id="text-entity-credits-a70c9b25-3964-5778-9d84-28cff9e0b3b8-attr-9-comment" class="er entityLabel">active/paid_off/default</text></g><g transform="translate(20,876 )" id="entity-transactions-a3d7e83a-4348-578f-b8ec-7c8b8dbef31a"><rect height="178" width="299.0453186035156" y="0" x="0" class="er entityBox"/><text style="dominant-baseline: middle; text-anchor: middle; font-size: 12px;" transform="translate(149.5226593017578,12)" y="0" x="0" id="text-entity-transactions-a3d7e83a-4348-578f-b8ec-7c8b8dbef31a" class="er entityLabel">transactions</text><rect height="22" width="58.98138427734375" y="24" x="0" class="er attributeBoxOdd"/><text style="dominant-baseline: middle; font-size: 10.2px;" transform="translate(5,35)" y="0" x="0" id="text-entity-transactions-a3d7e83a-4348-578f-b8ec-7c8b8dbef31a-attr-1-type" class="er entityLabel">int</text><rect height="22" width="75.73562622070312" y="24" x="58.98138427734375" class="er attributeBoxOdd"/><text style="dominant-baseline: middle; font-size: 10.2px;" transform="translate(63.98138427734375,35)" y="0" x="0" id="text-entity-transactions-a3d7e83a-4348-578f-b8ec-7c8b8dbef31a-attr-1-name" class="er entityLabel">transaction_id</text><rect height="22" width="22.68768310546875" y="24" x="134.71701049804688" class="er attributeBoxOdd"/><text style="dominant-baseline: middle; font-size: 10.2px;" transform="translate(139.71701049804688,35)" y="0" x="0" id="text-entity-transactions-a3d7e83a-4348-578f-b8ec-7c8b8dbef31a-attr-1-key" class="er entityLabel">PK</text><rect height="22" width="141.640625" y="24" x="157.40469360351562" class="er attributeBoxOdd"/><text style="dominant-baseline: middle; font-size: 10.2px;" transform="translate(162.40469360351562,35)" y="0" x="0" id="text-entity-transactions-a3d7e83a-4348-578f-b8ec-7c8b8dbef31a-attr-1-comment" class="er entityLabel"/><rect height="22" width="58.98138427734375" y="46" x="0" class="er attributeBoxEven"/><text style="dominant-baseline: middle; font-size: 10.2px;" transform="translate(5,57)" y="0" x="0" id="text-entity-transactions-a3d7e83a-4348-578f-b8ec-7c8b8dbef31a-attr-2-type" class="er entityLabel">int</text><rect height="22" width="75.73562622070312" y="46" x="58.98138427734375" class="er attributeBoxEven"/><text style="dominant-baseline: middle; font-size: 10.2px;" transform="translate(63.98138427734375,57)" y="0" x="0" id="text-entity-transactions-a3d7e83a-4348-578f-b8ec-7c8b8dbef31a-attr-2-name" class="er entityLabel">from_account</text><rect height="22" width="22.68768310546875" y="46" x="134.71701049804688" class="er attributeBoxEven"/><text style="dominant-baseline: middle; font-size: 10.2px;" transform="translate(139.71701049804688,57)" y="0" x="0" id="text-entity-transactions-a3d7e83a-4348-578f-b8ec-7c8b8dbef31a-attr-2-key" class="er entityLabel">FK</text><rect height="22" width="141.640625" y="46" x="157.40469360351562" class="er attributeBoxEven"/><text style="dominant-baseline: middle; font-size: 10.2px;" transform="translate(162.40469360351562,57)" y="0" x="0" id="text-entity-transactions-a3d7e83a-4348-578f-b8ec-7c8b8dbef31a-attr-2-comment" class="er entityLabel"/><rect height="22" width="58.98138427734375" y="68" x="0" class="er attributeBoxOdd"/><text style="dominant-baseline: middle; font-size: 10.2px;" transform="translate(5,79)" y="0" x="0" id="text-entity-transactions-a3d7e83a-4348-578f-b8ec-7c8b8dbef31a-attr-3-type" class="er entityLabel">int</text><rect height="22" width="75.73562622070312" y="68" x="58.98138427734375" class="er attributeBoxOdd"/><text style="dominant-baseline: middle; font-size: 10.2px;" transform="translate(63.98138427734375,79)" y="0" x="0" id="text-entity-transactions-a3d7e83a-4348-578f-b8ec-7c8b8dbef31a-attr-3-name" class="er entityLabel">to_account</text><rect height="22" width="22.68768310546875" y="68" x="134.71701049804688" class="er attributeBoxOdd"/><text style="dominant-baseline: middle; font-size: 10.2px;" transform="translate(139.71701049804688,79)" y="0" x="0" id="text-entity-transactions-a3d7e83a-4348-578f-b8ec-7c8b8dbef31a-attr-3-key" class="er entityLabel">FK</text><rect height="22" width="141.640625" y="68" x="157.40469360351562" class="er attributeBoxOdd"/><text style="dominant-baseline: middle; font-size: 10.2px;" transform="translate(162.40469360351562,79)" y="0" x="0" id="text-entity-transactions-a3d7e83a-4348-578f-b8ec-7c8b8dbef31a-attr-3-comment" class="er entityLabel"/><rect height="22" width="58.98138427734375" y="90" x="0" class="er attributeBoxEven"/><text style="dominant-baseline: middle; font-size: 10.2px;" transform="translate(5,101)" y="0" x="0" id="text-entity-transactions-a3d7e83a-4348-578f-b8ec-7c8b8dbef31a-attr-4-type" class="er entityLabel">real</text><rect height="22" width="75.73562622070312" y="90" x="58.98138427734375" class="er attributeBoxEven"/><text style="dominant-baseline: middle; font-size: 10.2px;" transform="translate(63.98138427734375,101)" y="0" x="0" id="text-entity-transactions-a3d7e83a-4348-578f-b8ec-7c8b8dbef31a-attr-4-name" class="er entityLabel">amount</text><rect height="22" width="22.68768310546875" y="90" x="134.71701049804688" class="er attributeBoxEven"/><text style="dominant-baseline: middle; font-size: 10.2px;" transform="translate(139.71701049804688,101)" y="0" x="0" id="text-entity-transactions-a3d7e83a-4348-578f-b8ec-7c8b8dbef31a-attr-4-key" class="er entityLabel"/><rect height="22" width="141.640625" y="90" x="157.40469360351562" class="er attributeBoxEven"/><text style="dominant-baseline: middle; font-size: 10.2px;" transform="translate(162.40469360351562,101)" y="0" x="0" id="text-entity-transactions-a3d7e83a-4348-578f-b8ec-7c8b8dbef31a-attr-4-comment" class="er entityLabel"/><rect height="22" width="58.98138427734375" y="112" x="0" class="er attributeBoxOdd"/><text style="dominant-baseline: middle; font-size: 10.2px;" transform="translate(5,123)" y="0" x="0" id="text-entity-transactions-a3d7e83a-4348-578f-b8ec-7c8b8dbef31a-attr-5-type" class="er entityLabel">string</text><rect height="22" width="75.73562622070312" y="112" x="58.98138427734375" class="er attributeBoxOdd"/><text style="dominant-baseline: middle; font-size: 10.2px;" transform="translate(63.98138427734375,123)" y="0" x="0" id="text-entity-transactions-a3d7e83a-4348-578f-b8ec-7c8b8dbef31a-attr-5-name" class="er entityLabel">type</text><rect height="22" width="22.68768310546875" y="112" x="134.71701049804688" class="er attributeBoxOdd"/><text style="dominant-baseline: middle; font-size: 10.2px;" transform="translate(139.71701049804688,123)" y="0" x="0" id="text-entity-transactions-a3d7e83a-4348-578f-b8ec-7c8b8dbef31a-attr-5-key" class="er entityLabel"/><rect height="22" width="141.640625" y="112" x="157.40469360351562" class="er attributeBoxOdd"/><text style="dominant-baseline: middle; font-size: 10.2px;" transform="translate(162.40469360351562,123)" y="0" x="0" id="text-entity-transactions-a3d7e83a-4348-578f-b8ec-7c8b8dbef31a-attr-5-comment" class="er entityLabel">transfer/deposit/withdrawal</text><rect height="22" width="58.98138427734375" y="134" x="0" class="er attributeBoxEven"/><text style="dominant-baseline: middle; font-size: 10.2px;" transform="translate(5,145)" y="0" x="0" id="text-entity-transactions-a3d7e83a-4348-578f-b8ec-7c8b8dbef31a-attr-6-type" class="er entityLabel">timestamp</text><rect height="22" width="75.73562622070312" y="134" x="58.98138427734375" class="er attributeBoxEven"/><text style="dominant-baseline: middle; font-size: 10.2px;" transform="translate(63.98138427734375,145)" y="0" x="0" id="text-entity-transactions-a3d7e83a-4348-578f-b8ec-7c8b8dbef31a-attr-6-name" class="er entityLabel">timestamp</text><rect height="22" width="22.68768310546875" y="134" x="134.71701049804688" class="er attributeBoxEven"/><text style="dominant-baseline: middle; font-size: 10.2px;" transform="translate(139.71701049804688,145)" y="0" x="0" id="text-entity-transactions-a3d7e83a-4348-578f-b8ec-7c8b8dbef31a-attr-6-key" class="er entityLabel"/><rect height="22" width="141.640625" y="134" x="157.40469360351562" class="er attributeBoxEven"/><text style="dominant-baseline: middle; font-size: 10.2px;" transform="translate(162.40469360351562,145)" y="0" x="0" id="text-entity-transactions-a3d7e83a-4348-578f-b8ec-7c8b8dbef31a-attr-6-comment" class="er entityLabel"/><rect height="22" width="58.98138427734375" y="156" x="0" class="er attributeBoxOdd"/><text style="dominant-baseline: middle; font-size: 10.2px;" transform="translate(5,167)" y="0" x="0" id="text-entity-transactions-a3d7e83a-4348-578f-b8ec-7c8b8dbef31a-attr-7-type" class="er entityLabel">string</text><rect height="22" width="75.73562622070312" y="156" x="58.98138427734375" class="er attributeBoxOdd"/><text style="dominant-baseline: middle; font-size: 10.2px;" transform="translate(63.98138427734375,167)" y="0" x="0" id="text-entity-transactions-a3d7e83a-4348-578f-b8ec-7c8b8dbef31a-attr-7-name" class="er entityLabel">description</text><rect height="22" width="22.68768310546875" y="156" x="134.71701049804688" class="er attributeBoxOdd"/><text style="dominant-baseline: middle; font-size: 10.2px;" transform="translate(139.71701049804688,167)" y="0" x="0" id="text-entity-transactions-a3d7e83a-4348-578f-b8ec-7c8b8dbef31a-attr-7-key" class="er entityLabel"/><rect height="22" width="141.640625" y="156" x="157.40469360351562" class="er attributeBoxOdd"/><text style="dominant-baseline: middle; font-size: 10.2px;" transform="translate(162.40469360351562,167)" y="0" x="0" id="text-entity-transactions-a3d7e83a-4348-578f-b8ec-7c8b8dbef31a-attr-7-comment" class="er entityLabel"/></g><rect height="14" width="17.861328125" y="376.28375244140625" x="36.734127044677734" class="er relationshipLabelBox"/><text style="text-anchor: middle; dominant-baseline: middle; font-size: 12px;" y="383.28375244140625" x="45.664791107177734" id="rel4" class="er relationshipLabel">has</text><rect height="14" width="17.861328125" y="210.71055603027344" x="271.3863830566406" class="er relationshipLabelBox"/><text style="text-anchor: middle; dominant-baseline: middle; font-size: 12px;" y="217.71055603027344" x="280.3170471191406" id="rel5" class="er relationshipLabel">has</text><rect height="14" width="49.55078125" y="819" x="100.74260711669922" class="er relationshipLabelBox"/><text style="text-anchor: middle; dominant-baseline: middle; font-size: 12px;" y="826" x="125.51799774169922" id="rel6" class="er relationshipLabel">has_from</text><rect height="14" width="35.76953125" y="819" x="195.64222717285156" class="er relationshipLabelBox"/><text style="text-anchor: middle; dominant-baseline: middle; font-size: 12px;" y="826" x="213.52699279785156" id="rel7" class="er relationshipLabel">has_to</text><rect height="14" width="50.8515625" y="546.1798095703125" x="257.9939270019531" class="er relationshipLabelBox"/><text style="text-anchor: middle; dominant-baseline: middle; font-size: 12px;" y="553.1798095703125" x="283.4197082519531" id="rel8" class="er relationshipLabel">linked_to</text></svg>